<?xml version="1.0" standalone="no"?><!DOCTYPE svg PUBLIC "-//W3C//DTD SVG 1.1//EN" "http://www.w3.org/Graphics/SVG/1.1/DTD/svg11.dtd"><svg xmlns:xlink="http://www.w3.org/1999/xlink" version="1.1" style="font-family:&quot;Lucida Grande&quot;, &quot;Lucida Sans Unicode&quot;, Arial, Helvetica, sans-serif;font-size:12px;" xmlns="http://www.w3.org/2000/svg" width="600" height="400"><desc>Created with Highcharts 4.1.7</desc><defs><clipPath id="highcharts-1"><rect x="0" y="0" width="518" height="276"></rect></clipPath></defs><rect x="0" y="0" width="600" height="400" strokeWidth="0" fill="#FFFFFF" class=" highcharts-background"></rect><g class="highcharts-grid" zIndex="1"></g><g class="highcharts-grid" zIndex="1"><path fill="none" d="M 72 323.5 L 590 323.5" stroke="#D8D8D8" stroke-width="1" zIndex="1" opacity="1"></path><path fill="none" d="M 72 277.5 L 590 277.5" stroke="#D8D8D8" stroke-width="1" zIndex="1" opacity="1"></path><path fill="none" d="M 72 231.5 L 590 231.5" stroke="#D8D8D8" stroke-width="1" zIndex="1" opacity="1"></path><path fill="none" d="M 72 185.5 L 590 185.5" stroke="#D8D8D8" stroke-width="1" zIndex="1" opacity="1"></path><path fill="none" d="M 72 139.5 L 590 139.5" stroke="#D8D8D8" stroke-width="1" zIndex="1" opacity="1"></path><path fill="none" d="M 72 93.5 L 590 93.5" stroke="#D8D8D8" stroke-width="1" zIndex="1" opacity="1"></path><path fill="none" d="M 72 46.5 L 590 46.5" stroke="#D8D8D8" stroke-width="1" zIndex="1" opacity="1"></path></g><g class="highcharts-axis" zIndex="2"><path fill="none" d="M 76.5 323 L 76.5 333" stroke="#C0D0E0" stroke-width="1" opacity="1"></path><path fill="none" d="M 178.5 323 L 178.5 333" stroke="#C0D0E0" stroke-width="1" opacity="1"></path><path fill="none" d="M 279.5 323 L 279.5 333" stroke="#C0D0E0" stroke-width="1" opacity="1"></path><path fill="none" d="M 381.5 323 L 381.5 333" stroke="#C0D0E0" stroke-width="1" opacity="1"></path><path fill="none" d="M 482.5 323 L 482.5 333" stroke="#C0D0E0" stroke-width="1" opacity="1"></path><path fill="none" d="M 584.5 323 L 584.5 333" stroke="#C0D0E0" stroke-width="1" opacity="1"></path><path fill="none" d="M 72 323.5 L 590 323.5" stroke="#C0D0E0" stroke-width="1" zIndex="7" visibility="visible"></path></g><g class="highcharts-axis" zIndex="2"><text x="26" zIndex="7" text-anchor="middle" transform="translate(0,0) rotate(270 26 185)" class=" highcharts-yaxis-title" style="color:#707070;fill:#707070;" visibility="visible" y="185">Quantity</text></g><g class="highcharts-series-group" zIndex="3"><g class="highcharts-series" visibility="visible" zIndex="0.1" transform="translate(72,47) scale(1 1)" clip-path="url(#highcharts-1)"><path fill="none" d="M 5.078431372549019 138 C 5.078431372549019 138 35.549019607843135 101.20000000000002 55.86274509803921 101.20000000000002 C 76.17647058823529 101.20000000000002 86.33333333333333 211.60000000000002 106.6470588235294 211.60000000000002 C 126.96078431372548 211.60000000000002 137.11764705882354 64.4 157.4313725490196 64.4 C 177.7450980392157 64.4 187.90196078431373 193.2 208.2156862745098 193.2 C 228.52941176470586 193.2 238.68627450980392 55.20000000000002 259 55.20000000000002 C 279.3137254901961 55.20000000000002 289.4705882352941 174.8 309.78431372549016 174.8 C 330.0980392156863 174.8 340.2549019607843 73.60000000000002 360.5686274509804 46.00000000000003 C 380.88235294117646 18.400000000000034 391.0392156862745 18.400000000000034 411.35294117647055 18.400000000000034 C 431.66666666666663 18.400000000000034 441.8235294117647 18.400000000000034 462.1372549019608 27.600000000000023 C 482.4509803921568 36.80000000000001 512.9215686274509 257.6 512.9215686274509 257.6" stroke="#7cb5ec" stroke-width="2" zIndex="1" stroke-linejoin="round" stroke-linecap="round"></path><path fill="none" d="M -4.921568627450981 138 L 5.078431372549019 138 C 5.078431372549019 138 35.549019607843135 101.20000000000002 55.86274509803921 101.20000000000002 C 76.17647058823529 101.20000000000002 86.33333333333333 211.60000000000002 106.6470588235294 211.60000000000002 C 126.96078431372548 211.60000000000002 137.11764705882354 64.4 157.4313725490196 64.4 C 177.7450980392157 64.4 187.90196078431373 193.2 208.2156862745098 193.2 C 228.52941176470586 193.2 238.68627450980392 55.20000000000002 259 55.20000000000002 C 279.3137254901961 55.20000000000002 289.4705882352941 174.8 309.78431372549016 174.8 C 330.0980392156863 174.8 340.2549019607843 73.60000000000002 360.5686274509804 46.00000000000003 C 380.88235294117646 18.400000000000034 391.0392156862745 18.400000000000034 411.35294117647055 18.400000000000034 C 431.66666666666663 18.400000000000034 441.8235294117647 18.400000000000034 462.1372549019608 27.600000000000023 C 482.4509803921568 36.80000000000001 512.9215686274509 257.6 512.9215686274509 257.6 L 522.9215686274509 257.6" stroke-linejoin="round" visibility="visible" stroke="rgba(192,192,192,0.0001)" stroke-width="22" zIndex="2" class=" highcharts-tracker" style=""></path></g><g class="highcharts-markers highcharts-tracker" visibility="visible" zIndex="0.1" transform="translate(72,47) scale(1 1)" style="" clip-path="none"><path fill="#7cb5ec" d="M 512 253.60000000000002 C 517.328 253.60000000000002 517.328 261.6 512 261.6 C 506.672 261.6 506.672 253.60000000000002 512 253.60000000000002 Z"></path><path fill="#7cb5ec" d="M 462 23.600000000000023 C 467.328 23.600000000000023 467.328 31.600000000000023 462 31.600000000000023 C 456.672 31.600000000000023 456.672 23.600000000000023 462 23.600000000000023 Z"></path><path fill="#7cb5ec" d="M 411 14.400000000000034 C 416.328 14.400000000000034 416.328 22.400000000000034 411 22.400000000000034 C 405.672 22.400000000000034 405.672 14.400000000000034 411 14.400000000000034 Z"></path><path fill="#7cb5ec" d="M 360 42.00000000000003 C 365.328 42.00000000000003 365.328 50.00000000000003 360 50.00000000000003 C 354.672 50.00000000000003 354.672 42.00000000000003 360 42.00000000000003 Z"></path><path fill="#7cb5ec" d="M 309 170.8 C 314.328 170.8 314.328 178.8 309 178.8 C 303.672 178.8 303.672 170.8 309 170.8 Z"></path><path fill="#7cb5ec" d="M 259 51.20000000000002 C 264.328 51.20000000000002 264.328 59.20000000000002 259 59.20000000000002 C 253.672 59.20000000000002 253.672 51.20000000000002 259 51.20000000000002 Z"></path><path fill="#7cb5ec" d="M 208 189.2 C 213.328 189.2 213.328 197.2 208 197.2 C 202.672 197.2 202.672 189.2 208 189.2 Z"></path><path fill="#7cb5ec" d="M 157 60.400000000000006 C 162.328 60.400000000000006 162.328 68.4 157 68.4 C 151.672 68.4 151.672 60.400000000000006 157 60.400000000000006 Z"></path><path fill="#7cb5ec" d="M 106 207.60000000000002 C 111.328 207.60000000000002 111.328 215.60000000000002 106 215.60000000000002 C 100.672 215.60000000000002 100.672 207.60000000000002 106 207.60000000000002 Z"></path><path fill="#7cb5ec" d="M 55 97.20000000000002 C 60.328 97.20000000000002 60.328 105.20000000000002 55 105.20000000000002 C 49.672 105.20000000000002 49.672 97.20000000000002 55 97.20000000000002 Z"></path><path fill="#7cb5ec" d="M 5 134 C 10.328 134 10.328 142 5 142 C -0.32800000000000007 142 -0.32800000000000007 134 5 134 Z"></path></g></g><text x="300" text-anchor="middle" class="highcharts-title" zIndex="4" style="color:#333333;font-size:18px;fill:#333333;width:536px;" y="24"><tspan>Exporting a chart as an image</tspan></text><g class="highcharts-legend" zIndex="7" transform="translate(255,358)"><g zIndex="1"><g><g class="highcharts-legend-item" zIndex="1" transform="translate(8,3)"><path fill="none" d="M 0 11 L 16 11" stroke="#7cb5ec" stroke-width="2"></path><path fill="#7cb5ec" d="M 8 7 C 13.328 7 13.328 15 8 15 C 2.6719999999999997 15 2.6719999999999997 7 8 7 Z"></path><text x="21" style="color:#333333;font-size:12px;font-weight:bold;cursor:pointer;fill:#333333;" text-anchor="start" zIndex="2" y="15"><tspan>Series 1</tspan></text></g></g></g></g><g class="highcharts-axis-labels highcharts-xaxis-labels" zIndex="7"><text x="77.07843137254902" style="color:#606060;cursor:default;font-size:11px;fill:#606060;width:94px;text-overflow:clip;" text-anchor="middle" transform="translate(0,0)" y="342" opacity="1"><tspan>10. Aug</tspan></text><text x="178.6470588235294" style="color:#606060;cursor:default;font-size:11px;fill:#606060;width:94px;text-overflow:clip;" text-anchor="middle" transform="translate(0,0)" y="342" opacity="1"><tspan>12. Aug</tspan></text><text x="280.21568627450984" style="color:#606060;cursor:default;font-size:11px;fill:#606060;width:94px;text-overflow:clip;" text-anchor="middle" transform="translate(0,0)" y="342" opacity="1"><tspan>14. Aug</tspan></text><text x="381.78431372549016" style="color:#606060;cursor:default;font-size:11px;fill:#606060;width:94px;text-overflow:clip;" text-anchor="middle" transform="translate(0,0)" y="342" opacity="1"><tspan>16. Aug</tspan></text><text x="483.35294117647055" style="color:#606060;cursor:default;font-size:11px;fill:#606060;width:94px;text-overflow:clip;" text-anchor="middle" transform="translate(0,0)" y="342" opacity="1"><tspan>18. Aug</tspan></text><text x="569" style="color:#606060;cursor:default;font-size:11px;fill:#606060;width:94px;text-overflow:clip;" text-anchor="middle" transform="translate(0,0)" y="342" opacity="1"><tspan>20. Aug</tspan></text></g><g class="highcharts-axis-labels highcharts-yaxis-labels" zIndex="7"><text x="57" style="color:#606060;cursor:default;font-size:11px;fill:#606060;width:188px;text-overflow:clip;" text-anchor="end" transform="translate(0,0)" y="327" opacity="1">150</text><text x="57" style="color:#606060;cursor:default;font-size:11px;fill:#606060;width:188px;text-overflow:clip;" text-anchor="end" transform="translate(0,0)" y="281" opacity="1">155</text><text x="57" style="color:#606060;cursor:default;font-size:11px;fill:#606060;width:188px;text-overflow:clip;" text-anchor="end" transform="translate(0,0)" y="235" opacity="1">160</text><text x="57" style="color:#606060;cursor:default;font-size:11px;fill:#606060;width:188px;text-overflow:clip;" text-anchor="end" transform="translate(0,0)" y="189" opacity="1">165</text><text x="57" style="color:#606060;cursor:default;font-size:11px;fill:#606060;width:188px;text-overflow:clip;" text-anchor="end" transform="translate(0,0)" y="143" opacity="1">170</text><text x="57" style="color:#606060;cursor:default;font-size:11px;fill:#606060;width:188px;text-overflow:clip;" text-anchor="end" transform="translate(0,0)" y="97" opacity="1">175</text><text x="57" style="color:#606060;cursor:default;font-size:11px;fill:#606060;width:188px;text-overflow:clip;" text-anchor="end" transform="translate(0,0)" y="51" opacity="1">180</text></g><g class="highcharts-tooltip" zIndex="8" style="cursor:default;padding:0;white-space:nowrap;" transform="translate(0,-9999)"><path fill="none" d="M 3.5 0.5 L 13.5 0.5 C 16.5 0.5 16.5 0.5 16.5 3.5 L 16.5 13.5 C 16.5 16.5 16.5 16.5 13.5 16.5 L 3.5 16.5 C 0.5 16.5 0.5 16.5 0.5 13.5 L 0.5 3.5 C 0.5 0.5 0.5 0.5 3.5 0.5" isShadow="true" stroke="black" stroke-width="5" transform="translate(1, 1)" opacity="0.049999999999999996"></path><path fill="none" d="M 3.5 0.5 L 13.5 0.5 C 16.5 0.5 16.5 0.5 16.5 3.5 L 16.5 13.5 C 16.5 16.5 16.5 16.5 13.5 16.5 L 3.5 16.5 C 0.5 16.5 0.5 16.5 0.5 13.5 L 0.5 3.5 C 0.5 0.5 0.5 0.5 3.5 0.5" isShadow="true" stroke="black" stroke-width="3" transform="translate(1, 1)" opacity="0.09999999999999999"></path><path fill="none" d="M 3.5 0.5 L 13.5 0.5 C 16.5 0.5 16.5 0.5 16.5 3.5 L 16.5 13.5 C 16.5 16.5 16.5 16.5 13.5 16.5 L 3.5 16.5 C 0.5 16.5 0.5 16.5 0.5 13.5 L 0.5 3.5 C 0.5 0.5 0.5 0.5 3.5 0.5" isShadow="true" stroke="black" stroke-width="1" transform="translate(1, 1)" opacity="0.15"></path><path fill="rgba(249, 249, 249, .85)" d="M 3.5 0.5 L 13.5 0.5 C 16.5 0.5 16.5 0.5 16.5 3.5 L 16.5 13.5 C 16.5 16.5 16.5 16.5 13.5 16.5 L 3.5 16.5 C 0.5 16.5 0.5 16.5 0.5 13.5 L 0.5 3.5 C 0.5 0.5 0.5 0.5 3.5 0.5"></path><text x="8" zIndex="1" style="font-size:12px;color:#333333;fill:#333333;" y="20"></text></g><text x="590" text-anchor="end" zIndex="8" style="cursor:pointer;color:#909090;font-size:9px;fill:#909090;" y="395">Highcharts.com</text></svg>