<?xml version="1.0" standalone="no"?><!DOCTYPE svg PUBLIC "-//W3C//DTD SVG 1.1//EN" "http://www.w3.org/Graphics/SVG/1.1/DTD/svg11.dtd"><svg xmlns:xlink="http://www.w3.org/1999/xlink" version="1.1" style="font-family:'lucida grande', 'lucida sans unicode', arial, helvetica, sans-serif;font-size:12px;" xmlns="http://www.w3.org/2000/svg" width="800" height="360"><desc>Created with Highcharts 4.1.9</desc><defs><clipPath id="highcharts-7"><rect x="0" y="0" width="611" height="249"></rect></clipPath></defs><rect x="0" y="0" width="800" height="360" strokeWidth="0" fill="#FFFFFF" class=" highcharts-background"></rect><path fill="none" d="M 73 258.5 L 684 258.5" stroke="#808080" stroke-width="1"></path><g class="highcharts-grid" ></g><g class="highcharts-grid" ><path fill="none" d="M 73 320.5 L 684 320.5" stroke="#D8D8D8" stroke-width="1"  opacity="1"></path><path fill="none" d="M 73 258.5 L 684 258.5" stroke="#D8D8D8" stroke-width="1"  opacity="1"></path><path fill="none" d="M 73 196.5 L 684 196.5" stroke="#D8D8D8" stroke-width="1"  opacity="1"></path><path fill="none" d="M 73 133.5 L 684 133.5" stroke="#D8D8D8" stroke-width="1"  opacity="1"></path><path fill="none" d="M 73 70.5 L 684 70.5" stroke="#D8D8D8" stroke-width="1"  opacity="1"></path></g><g class="highcharts-axis" ><path fill="none" d="M 123.5 320 L 123.5 330" stroke="#C0D0E0" stroke-width="1" opacity="1"></path><path fill="none" d="M 174.5 320 L 174.5 330" stroke="#C0D0E0" stroke-width="1" opacity="1"></path><path fill="none" d="M 225.5 320 L 225.5 330" stroke="#C0D0E0" stroke-width="1" opacity="1"></path><path fill="none" d="M 276.5 320 L 276.5 330" stroke="#C0D0E0" stroke-width="1" opacity="1"></path><path fill="none" d="M 327.5 320 L 327.5 330" stroke="#C0D0E0" stroke-width="1" opacity="1"></path><path fill="none" d="M 377.5 320 L 377.5 330" stroke="#C0D0E0" stroke-width="1" opacity="1"></path><path fill="none" d="M 428.5 320 L 428.5 330" stroke="#C0D0E0" stroke-width="1" opacity="1"></path><path fill="none" d="M 479.5 320 L 479.5 330" stroke="#C0D0E0" stroke-width="1" opacity="1"></path><path fill="none" d="M 530.5 320 L 530.5 330" stroke="#C0D0E0" stroke-width="1" opacity="1"></path><path fill="none" d="M 581.5 320 L 581.5 330" stroke="#C0D0E0" stroke-width="1" opacity="1"></path><path fill="none" d="M 632.5 320 L 632.5 330" stroke="#C0D0E0" stroke-width="1" opacity="1"></path><path fill="none" d="M 684.5 320 L 684.5 330" stroke="#C0D0E0" stroke-width="1" opacity="1"></path><path fill="none" d="M 72.5 320 L 72.5 330" stroke="#C0D0E0" stroke-width="1" opacity="1"></path><path fill="none" d="M 73 320.5 L 684 320.5" stroke="#C0D0E0" stroke-width="1"  visibility="visible"></path></g><g class="highcharts-axis" ><text x="27.734375"  text-anchor="middle" transform="translate(0,0) rotate(270 27.734375 195.5)" class=" highcharts-yaxis-title" style="color:#707070;fill:#707070;" visibility="visible" y="195.5"><tspan>Temperature (°C)</tspan></text></g><g class="highcharts-series-group" ><g class="highcharts-series highcharts-series-0" visibility="visible"  transform="translate(73,71) scale(1 1)" clip-path="url(#highcharts-7)"><path fill="none" d="M 25.458333333333332 143.175 L 76.375 143.7975 L 127.29166666666666 127.61250000000001 L 178.20833333333334 96.48750000000001 L 229.125 73.45500000000001 L 280.04166666666663 52.91250000000002 L 330.9583333333333 29.879999999999995 L 381.87499999999994 21.787500000000023 L 432.79166666666663 41.70750000000004 L 483.7083333333333 72.83250000000001 L 534.625 100.22250000000003 L 585.5416666666666 126.99" stroke="#7cb5ec" stroke-width="2"  stroke-linejoin="round" stroke-linecap="round"></path></g><g class="highcharts-markers highcharts-series-0" visibility="visible"  transform="translate(73,71) scale(1 1)" clip-path="none"><path fill="#7cb5ec" d="M 585 122.99 C 590.328 122.99 590.328 130.99 585 130.99 C 579.672 130.99 579.672 122.99 585 122.99 Z"></path><path fill="#7cb5ec" d="M 534 96.22250000000003 C 539.328 96.22250000000003 539.328 104.22250000000003 534 104.22250000000003 C 528.672 104.22250000000003 528.672 96.22250000000003 534 96.22250000000003 Z"></path><path fill="#7cb5ec" d="M 483 68.83250000000001 C 488.328 68.83250000000001 488.328 76.83250000000001 483 76.83250000000001 C 477.672 76.83250000000001 477.672 68.83250000000001 483 68.83250000000001 Z"></path><path fill="#7cb5ec" d="M 432 37.70750000000004 C 437.328 37.70750000000004 437.328 45.70750000000004 432 45.70750000000004 C 426.672 45.70750000000004 426.672 37.70750000000004 432 37.70750000000004 Z"></path><path fill="#7cb5ec" d="M 381 17.787500000000023 C 386.328 17.787500000000023 386.328 25.787500000000023 381 25.787500000000023 C 375.672 25.787500000000023 375.672 17.787500000000023 381 17.787500000000023 Z"></path><path fill="#7cb5ec" d="M 330 25.879999999999995 C 335.328 25.879999999999995 335.328 33.879999999999995 330 33.879999999999995 C 324.672 33.879999999999995 324.672 25.879999999999995 330 25.879999999999995 Z"></path><path fill="#7cb5ec" d="M 280 48.91250000000002 C 285.328 48.91250000000002 285.328 56.91250000000002 280 56.91250000000002 C 274.672 56.91250000000002 274.672 48.91250000000002 280 48.91250000000002 Z"></path><path fill="#7cb5ec" d="M 229 69.45500000000001 C 234.328 69.45500000000001 234.328 77.45500000000001 229 77.45500000000001 C 223.672 77.45500000000001 223.672 69.45500000000001 229 69.45500000000001 Z"></path><path fill="#7cb5ec" d="M 178 92.48750000000001 C 183.328 92.48750000000001 183.328 100.48750000000001 178 100.48750000000001 C 172.672 100.48750000000001 172.672 92.48750000000001 178 92.48750000000001 Z"></path><path fill="#7cb5ec" d="M 127 123.61250000000001 C 132.328 123.61250000000001 132.328 131.6125 127 131.6125 C 121.672 131.6125 121.672 123.61250000000001 127 123.61250000000001 Z"></path><path fill="#7cb5ec" d="M 76 139.7975 C 81.328 139.7975 81.328 147.7975 76 147.7975 C 70.672 147.7975 70.672 139.7975 76 139.7975 Z"></path><path fill="#7cb5ec" d="M 25 139.175 C 30.328 139.175 30.328 147.175 25 147.175 C 19.672 147.175 19.672 139.175 25 139.175 Z"></path></g><g class="highcharts-series highcharts-series-1" visibility="visible"  transform="translate(73,71) scale(1 1)" clip-path="url(#highcharts-7)"><path fill="none" d="M 25.458333333333332 187.995 L 76.375 181.76999999999998 L 127.29166666666666 151.2675 L 178.20833333333334 116.4075 L 229.125 80.92500000000001 L 280.04166666666663 49.80000000000001 L 330.9583333333333 32.37000000000003 L 381.87499999999994 36.72749999999999 L 432.79166666666663 61.6275 L 483.7083333333333 98.97749999999999 L 534.625 133.215 L 585.5416666666666 171.1875" stroke="#434348" stroke-width="2"  stroke-linejoin="round" stroke-linecap="round"></path></g><g class="highcharts-markers highcharts-series-1" visibility="visible"  transform="translate(73,71) scale(1 1)" clip-path="none"><path fill="#434348" d="M 585 167.1875 L 589 171.1875 585 175.1875 581 171.1875 Z"></path><path fill="#434348" d="M 534 129.215 L 538 133.215 534 137.215 530 133.215 Z"></path><path fill="#434348" d="M 483 94.97749999999999 L 487 98.97749999999999 483 102.97749999999999 479 98.97749999999999 Z"></path><path fill="#434348" d="M 432 57.6275 L 436 61.6275 432 65.6275 428 61.6275 Z"></path><path fill="#434348" d="M 381 32.72749999999999 L 385 36.72749999999999 381 40.72749999999999 377 36.72749999999999 Z"></path><path fill="#434348" d="M 330 28.370000000000033 L 334 32.37000000000003 330 36.37000000000003 326 32.37000000000003 Z"></path><path fill="#434348" d="M 280 45.80000000000001 L 284 49.80000000000001 280 53.80000000000001 276 49.80000000000001 Z"></path><path fill="#434348" d="M 229 76.92500000000001 L 233 80.92500000000001 229 84.92500000000001 225 80.92500000000001 Z"></path><path fill="#434348" d="M 178 112.4075 L 182 116.4075 178 120.4075 174 116.4075 Z"></path><path fill="#434348" d="M 127 147.2675 L 131 151.2675 127 155.2675 123 151.2675 Z"></path><path fill="#434348" d="M 76 177.76999999999998 L 80 181.76999999999998 76 185.76999999999998 72 181.76999999999998 Z"></path><path fill="#434348" d="M 25 183.995 L 29 187.995 25 191.995 21 187.995 Z"></path></g><g class="highcharts-series highcharts-series-2" visibility="visible"  transform="translate(73,71) scale(1 1)" clip-path="url(#highcharts-7)"><path fill="none" d="M 25.458333333333332 192.35250000000002 L 76.375 183.015 L 127.29166666666666 164.9625 L 178.20833333333334 134.46000000000004 L 229.125 102.7125 L 280.04166666666663 80.92500000000001 L 330.9583333333333 70.965 L 381.87499999999994 75.32250000000002 L 432.79166666666663 97.73250000000002 L 483.7083333333333 130.72500000000002 L 534.625 162.4725 L 585.5416666666666 180.525" stroke="#90ed7d" stroke-width="2"  stroke-linejoin="round" stroke-linecap="round"></path></g><g class="highcharts-markers highcharts-series-2" visibility="visible"  transform="translate(73,71) scale(1 1)" clip-path="none"><path fill="#90ed7d" d="M 581 176.525 L 589 176.525 589 184.525 581 184.525 Z"></path><path fill="#90ed7d" d="M 530 158.4725 L 538 158.4725 538 166.4725 530 166.4725 Z"></path><path fill="#90ed7d" d="M 479 126.72500000000002 L 487 126.72500000000002 487 134.72500000000002 479 134.72500000000002 Z"></path><path fill="#90ed7d" d="M 428 93.73250000000002 L 436 93.73250000000002 436 101.73250000000002 428 101.73250000000002 Z"></path><path fill="#90ed7d" d="M 377 71.32250000000002 L 385 71.32250000000002 385 79.32250000000002 377 79.32250000000002 Z"></path><path fill="#90ed7d" d="M 326 66.965 L 334 66.965 334 74.965 326 74.965 Z"></path><path fill="#90ed7d" d="M 276 76.92500000000001 L 284 76.92500000000001 284 84.92500000000001 276 84.92500000000001 Z"></path><path fill="#90ed7d" d="M 225 98.7125 L 233 98.7125 233 106.7125 225 106.7125 Z"></path><path fill="#90ed7d" d="M 174 130.46000000000004 L 182 130.46000000000004 182 138.46000000000004 174 138.46000000000004 Z"></path><path fill="#90ed7d" d="M 123 160.9625 L 131 160.9625 131 168.9625 123 168.9625 Z"></path><path fill="#90ed7d" d="M 72 179.015 L 80 179.015 80 187.015 72 187.015 Z"></path><path fill="#90ed7d" d="M 21 188.35250000000002 L 29 188.35250000000002 29 196.35250000000002 21 196.35250000000002 Z"></path></g><g class="highcharts-series highcharts-series-3" visibility="visible"  transform="translate(73,71) scale(1 1)" clip-path="url(#highcharts-7)"><path fill="none" d="M 25.458333333333332 162.4725 L 76.375 160.60500000000002 L 127.29166666666666 151.2675 L 178.20833333333334 133.8375 L 229.125 112.67250000000001 L 280.04166666666663 92.13000000000002 L 330.9583333333333 80.92500000000001 L 381.87499999999994 83.41499999999999 L 432.79166666666663 98.35500000000002 L 483.7083333333333 122.63250000000001 L 534.625 145.665 L 585.5416666666666 156.87" stroke="#f7a35c" stroke-width="2"  stroke-linejoin="round" stroke-linecap="round"></path></g><g class="highcharts-markers highcharts-series-3" visibility="visible"  transform="translate(73,71) scale(1 1)" clip-path="none"><path fill="#f7a35c" d="M 585 152.87 L 589 160.87 581 160.87 Z"></path><path fill="#f7a35c" d="M 534 141.665 L 538 149.665 530 149.665 Z"></path><path fill="#f7a35c" d="M 483 118.63250000000001 L 487 126.63250000000001 479 126.63250000000001 Z"></path><path fill="#f7a35c" d="M 432 94.35500000000002 L 436 102.35500000000002 428 102.35500000000002 Z"></path><path fill="#f7a35c" d="M 381 79.41499999999999 L 385 87.41499999999999 377 87.41499999999999 Z"></path><path fill="#f7a35c" d="M 330 76.92500000000001 L 334 84.92500000000001 326 84.92500000000001 Z"></path><path fill="#f7a35c" d="M 280 88.13000000000002 L 284 96.13000000000002 276 96.13000000000002 Z"></path><path fill="#f7a35c" d="M 229 108.67250000000001 L 233 116.67250000000001 225 116.67250000000001 Z"></path><path fill="#f7a35c" d="M 178 129.8375 L 182 137.8375 174 137.8375 Z"></path><path fill="#f7a35c" d="M 127 147.2675 L 131 155.2675 123 155.2675 Z"></path><path fill="#f7a35c" d="M 76 156.60500000000002 L 80 164.60500000000002 72 164.60500000000002 Z"></path><path fill="#f7a35c" d="M 25 158.4725 L 29 166.4725 21 166.4725 Z"></path></g></g><text x="380" text-anchor="middle" class="highcharts-title"  style="color:#333333;font-size:18px;fill:#333333;width:736px;" y="24"><tspan>Monthly Average Temperature</tspan></text><text x="380" text-anchor="middle" class="highcharts-subtitle"  style="color:#555555;fill:#555555;width:736px;" y="52"><tspan>Source: WorldClimate.com</tspan></text><g class="highcharts-legend"  transform="translate(696,136)"><g ><g><g class="highcharts-legend-item"  transform="translate(8,3)"><path fill="none" d="M 0 11 L 16 11" stroke="#7cb5ec" stroke-width="2"></path><path fill="#7cb5ec" d="M 8 7 C 13.328 7 13.328 15 8 15 C 2.6719999999999997 15 2.6719999999999997 7 8 7 Z"></path><text x="21" style="color:#333333;font-size:12px;font-weight:bold;cursor:pointer;fill:#333333;" text-anchor="start"  y="15">Tokyo</text></g><g class="highcharts-legend-item"  transform="translate(8,21)"><path fill="none" d="M 0 11 L 16 11" stroke="#434348" stroke-width="2"></path><path fill="#434348" d="M 8 7 L 12 11 8 15 4 11 Z"></path><text x="21" y="15" style="color:#333333;font-size:12px;font-weight:bold;cursor:pointer;fill:#333333;" text-anchor="start" ><tspan>New York</tspan></text></g><g class="highcharts-legend-item"  transform="translate(8,39)"><path fill="none" d="M 0 11 L 16 11" stroke="#90ed7d" stroke-width="2"></path><path fill="#90ed7d" d="M 4 7 L 12 7 12 15 4 15 Z"></path><text x="21" y="15" style="color:#333333;font-size:12px;font-weight:bold;cursor:pointer;fill:#333333;" text-anchor="start" >Berlin</text></g><g class="highcharts-legend-item"  transform="translate(8,57)"><path fill="none" d="M 0 11 L 16 11" stroke="#f7a35c" stroke-width="2"></path><path fill="#f7a35c" d="M 8 7 L 12 15 4 15 Z"></path><text x="21" y="15" style="color:#333333;font-size:12px;font-weight:bold;cursor:pointer;fill:#333333;" text-anchor="start" >London</text></g></g></g></g><g class="highcharts-axis-labels highcharts-xaxis-labels" ><text x="98.45833333333333" style="color:#606060;cursor:default;font-size:11px;fill:#606060;" text-anchor="middle" transform="translate(0,0)" y="339" opacity="1">Jan</text><text x="149.37499999999997" style="color:#606060;cursor:default;font-size:11px;fill:#606060;" text-anchor="middle" transform="translate(0,0)" y="339" opacity="1">Feb</text><text x="200.29166666666666" style="color:#606060;cursor:default;font-size:11px;fill:#606060;" text-anchor="middle" transform="translate(0,0)" y="339" opacity="1">Mar</text><text x="251.2083333333333" style="color:#606060;cursor:default;font-size:11px;fill:#606060;" text-anchor="middle" transform="translate(0,0)" y="339" opacity="1">Apr</text><text x="302.12500000000006" style="color:#606060;cursor:default;font-size:11px;fill:#606060;" text-anchor="middle" transform="translate(0,0)" y="339" opacity="1">May</text><text x="353.04166666666663" style="color:#606060;cursor:default;font-size:11px;fill:#606060;" text-anchor="middle" transform="translate(0,0)" y="339" opacity="1">Jun</text><text x="403.9583333333333" style="color:#606060;cursor:default;font-size:11px;fill:#606060;" text-anchor="middle" transform="translate(0,0)" y="339" opacity="1">Jul</text><text x="454.875" style="color:#606060;cursor:default;font-size:11px;fill:#606060;" text-anchor="middle" transform="translate(0,0)" y="339" opacity="1">Aug</text><text x="505.7916666666667" style="color:#606060;cursor:default;font-size:11px;fill:#606060;" text-anchor="middle" transform="translate(0,0)" y="339" opacity="1">Sep</text><text x="556.7083333333333" style="color:#606060;cursor:default;font-size:11px;fill:#606060;" text-anchor="middle" transform="translate(0,0)" y="339" opacity="1">Oct</text><text x="607.625" style="color:#606060;cursor:default;font-size:11px;fill:#606060;" text-anchor="middle" transform="translate(0,0)" y="339" opacity="1">Nov</text><text x="658.5416666666666" style="color:#606060;cursor:default;font-size:11px;fill:#606060;" text-anchor="middle" transform="translate(0,0)" y="339" opacity="1">Dec</text></g><g class="highcharts-axis-labels highcharts-yaxis-labels" ><text x="58" style="color:#606060;cursor:default;font-size:11px;fill:#606060;width:254px;text-overflow:clip;" text-anchor="end" transform="translate(0,0)" y="323" opacity="1">-10</text><text x="58" style="color:#606060;cursor:default;font-size:11px;fill:#606060;width:254px;text-overflow:clip;" text-anchor="end" transform="translate(0,0)" y="260" opacity="1">0</text><text x="58" style="color:#606060;cursor:default;font-size:11px;fill:#606060;width:254px;text-overflow:clip;" text-anchor="end" transform="translate(0,0)" y="198" opacity="1">10</text><text x="58" style="color:#606060;cursor:default;font-size:11px;fill:#606060;width:254px;text-overflow:clip;" text-anchor="end" transform="translate(0,0)" y="136" opacity="1">20</text><text x="58" style="color:#606060;cursor:default;font-size:11px;fill:#606060;width:254px;text-overflow:clip;" text-anchor="end" transform="translate(0,0)" y="74" opacity="1">30</text></g><g class="highcharts-tooltip"  style="cursor:default;padding:0;pointer-events:none;white-space:nowrap;" transform="translate(0,-9999)"><path fill="none" d="M 3.5 0.5 L 13.5 0.5 C 16.5 0.5 16.5 0.5 16.5 3.5 L 16.5 13.5 C 16.5 16.5 16.5 16.5 13.5 16.5 L 3.5 16.5 C 0.5 16.5 0.5 16.5 0.5 13.5 L 0.5 3.5 C 0.5 0.5 0.5 0.5 3.5 0.5"  stroke="black" stroke-opacity="0.049999999999999996" stroke-width="5" transform="translate(1, 1)"></path><path fill="none" d="M 3.5 0.5 L 13.5 0.5 C 16.5 0.5 16.5 0.5 16.5 3.5 L 16.5 13.5 C 16.5 16.5 16.5 16.5 13.5 16.5 L 3.5 16.5 C 0.5 16.5 0.5 16.5 0.5 13.5 L 0.5 3.5 C 0.5 0.5 0.5 0.5 3.5 0.5"  stroke="black" stroke-opacity="0.09999999999999999" stroke-width="3" transform="translate(1, 1)"></path><path fill="none" d="M 3.5 0.5 L 13.5 0.5 C 16.5 0.5 16.5 0.5 16.5 3.5 L 16.5 13.5 C 16.5 16.5 16.5 16.5 13.5 16.5 L 3.5 16.5 C 0.5 16.5 0.5 16.5 0.5 13.5 L 0.5 3.5 C 0.5 0.5 0.5 0.5 3.5 0.5"  stroke="black" stroke-opacity="0.15" stroke-width="1" transform="translate(1, 1)"></path><path fill="rgb(249, 249, 249)" fill-opacity=" .85" d="M 3.5 0.5 L 13.5 0.5 C 16.5 0.5 16.5 0.5 16.5 3.5 L 16.5 13.5 C 16.5 16.5 16.5 16.5 13.5 16.5 L 3.5 16.5 C 0.5 16.5 0.5 16.5 0.5 13.5 L 0.5 3.5 C 0.5 0.5 0.5 0.5 3.5 0.5"></path><text x="8"  style="font-size:12px;color:#333333;fill:#333333;" y="20"></text></g><text x="790" text-anchor="end"  style="cursor:pointer;color:#909090;font-size:9px;fill:#909090;" y="355">Highcharts.com</text></svg>