<svg xmlns:xlink="http://www.w3.org/1999/xlink" height="400" width="800" xmlns="http://www.w3.org/2000/svg" style="font-family:'lucida grande', 'lucida sans unicode', arial, helvetica, sans-serif;font-size:12px;" version="1.1"><desc>Created with Highcharts 4.1.7</desc><defs><clipPath id="highcharts-7"><rect height="276" width="715" y="0" x="0"></rect></clipPath></defs><rect class=" highcharts-background" fill="#FFFFFF" strokeWidth="0" height="400" width="800" y="0" x="0"></rect><g  class="highcharts-grid"></g><g  class="highcharts-grid"><path opacity="1"  stroke-width="1" stroke="#D8D8D8" d="M 75 323.5 L 790 323.5" fill="none"></path><path opacity="1"  stroke-width="1" stroke="#D8D8D8" d="M 75 277.5 L 790 277.5" fill="none"></path><path opacity="1"  stroke-width="1" stroke="#D8D8D8" d="M 75 231.5 L 790 231.5" fill="none"></path><path opacity="1"  stroke-width="1" stroke="#D8D8D8" d="M 75 185.5 L 790 185.5" fill="none"></path><path opacity="1"  stroke-width="1" stroke="#D8D8D8" d="M 75 139.5 L 790 139.5" fill="none"></path><path opacity="1"  stroke-width="1" stroke="#D8D8D8" d="M 75 93.5 L 790 93.5" fill="none"></path><path opacity="1"  stroke-width="1" stroke="#D8D8D8" d="M 75 46.5 L 790 46.5" fill="none"></path></g><g  class="highcharts-axis"><path opacity="1" stroke-width="1" stroke="#C0D0E0" d="M 81.5 323 L 81.5 333" fill="none"></path><path opacity="1" stroke-width="1" stroke="#C0D0E0" d="M 151.5 323 L 151.5 333" fill="none"></path><path opacity="1" stroke-width="1" stroke="#C0D0E0" d="M 221.5 323 L 221.5 333" fill="none"></path><path opacity="1" stroke-width="1" stroke="#C0D0E0" d="M 291.5 323 L 291.5 333" fill="none"></path><path opacity="1" stroke-width="1" stroke="#C0D0E0" d="M 361.5 323 L 361.5 333" fill="none"></path><path opacity="1" stroke-width="1" stroke="#C0D0E0" d="M 432.5 323 L 432.5 333" fill="none"></path><path opacity="1" stroke-width="1" stroke="#C0D0E0" d="M 502.5 323 L 502.5 333" fill="none"></path><path opacity="1" stroke-width="1" stroke="#C0D0E0" d="M 572.5 323 L 572.5 333" fill="none"></path><path opacity="1" stroke-width="1" stroke="#C0D0E0" d="M 642.5 323 L 642.5 333" fill="none"></path><path opacity="1" stroke-width="1" stroke="#C0D0E0" d="M 712.5 323 L 712.5 333" fill="none"></path><path opacity="1" stroke-width="1" stroke="#C0D0E0" d="M 782.5 323 L 782.5 333" fill="none"></path><path visibility="visible"  stroke-width="1" stroke="#C0D0E0" d="M 75 323.5 L 790 323.5" fill="none"></path></g><g  class="highcharts-axis"><text y="185" visibility="visible" style="color:#707070;fill:#707070;" class=" highcharts-yaxis-title" transform="translate(0,0) rotate(270 26 185)" text-anchor="middle"  x="26"><tspan>Unique app start</tspan></text></g><g  class="highcharts-series-group"><g clip-path="url(#highcharts-7)" transform="translate(75,47) scale(1 1)"  visibility="visible" class="highcharts-series"><path stroke-linecap="round" stroke-linejoin="round"  stroke-width="2" stroke="#7cb5ec" d="M 7.009803921568627 138 C 7.009803921568627 138 49.068627450980394 101.20000000000002 77.1078431372549 101.20000000000002 C 105.14705882352942 101.20000000000002 119.16666666666666 211.60000000000002 147.20588235294116 211.60000000000002 C 175.24509803921566 211.60000000000002 189.26470588235293 64.4 217.30392156862743 64.4 C 245.34313725490193 64.4 259.3627450980392 193.2 287.4019607843137 193.2 C 315.4411764705882 193.2 329.46078431372547 55.20000000000002 357.5 55.20000000000002 C 385.5392156862745 55.20000000000002 399.55882352941177 174.8 427.59803921568624 174.8 C 455.6372549019608 174.8 469.656862745098 73.60000000000002 497.69607843137254 46.00000000000003 C 525.7352941176471 18.400000000000034 539.7549019607843 18.400000000000034 567.7941176470588 18.400000000000034 C 595.8333333333333 18.400000000000034 609.8529411764705 18.400000000000034 637.8921568627451 27.600000000000023 C 665.9313725490196 36.80000000000001 707.9901960784314 257.6 707.9901960784314 257.6" fill="none"></path></g><g clip-path="none" transform="translate(75,47) scale(1 1)"  visibility="visible" class="highcharts-markers"><path d="M 707 253.60000000000002 C 712.328 253.60000000000002 712.328 261.6 707 261.6 C 701.672 261.6 701.672 253.60000000000002 707 253.60000000000002 Z" fill="#7cb5ec"></path><path d="M 637 23.600000000000023 C 642.328 23.600000000000023 642.328 31.600000000000023 637 31.600000000000023 C 631.672 31.600000000000023 631.672 23.600000000000023 637 23.600000000000023 Z" fill="#7cb5ec"></path><path d="M 567 14.400000000000034 C 572.328 14.400000000000034 572.328 22.400000000000034 567 22.400000000000034 C 561.672 22.400000000000034 561.672 14.400000000000034 567 14.400000000000034 Z" fill="#7cb5ec"></path><path d="M 497 42.00000000000003 C 502.328 42.00000000000003 502.328 50.00000000000003 497 50.00000000000003 C 491.672 50.00000000000003 491.672 42.00000000000003 497 42.00000000000003 Z" fill="#7cb5ec"></path><path d="M 427 170.8 C 432.328 170.8 432.328 178.8 427 178.8 C 421.672 178.8 421.672 170.8 427 170.8 Z" fill="#7cb5ec"></path><path d="M 357 51.20000000000002 C 362.328 51.20000000000002 362.328 59.20000000000002 357 59.20000000000002 C 351.672 59.20000000000002 351.672 51.20000000000002 357 51.20000000000002 Z" fill="#7cb5ec"></path><path d="M 287 189.2 C 292.328 189.2 292.328 197.2 287 197.2 C 281.672 197.2 281.672 189.2 287 189.2 Z" fill="#7cb5ec"></path><path d="M 217 60.400000000000006 C 222.328 60.400000000000006 222.328 68.4 217 68.4 C 211.672 68.4 211.672 60.400000000000006 217 60.400000000000006 Z" fill="#7cb5ec"></path><path d="M 147 207.60000000000002 C 152.328 207.60000000000002 152.328 215.60000000000002 147 215.60000000000002 C 141.672 215.60000000000002 141.672 207.60000000000002 147 207.60000000000002 Z" fill="#7cb5ec"></path><path d="M 77 97.20000000000002 C 82.328 97.20000000000002 82.328 105.20000000000002 77 105.20000000000002 C 71.672 105.20000000000002 71.672 97.20000000000002 77 97.20000000000002 Z" fill="#7cb5ec"></path><path d="M 7 134 C 12.328 134 12.328 142 7 142 C 1.672 142 1.672 134 7 134 Z" fill="#7cb5ec"></path></g></g><text y="24" style="color:#333333;font-size:18px;fill:#333333;width:736px;"  class="highcharts-title" text-anchor="middle" x="400"><tspan>Date format</tspan></text><g transform="translate(353,358)"  class="highcharts-legend"><g ><g><g transform="translate(8,3)"  class="highcharts-legend-item"><path stroke-width="2" stroke="#7cb5ec" d="M 0 11 L 16 11" fill="none"></path><path d="M 8 7 C 13.328 7 13.328 15 8 15 C 2.6719999999999997 15 2.6719999999999997 7 8 7 Z" fill="#7cb5ec"></path><text y="15"  text-anchor="start" style="color:#333333;font-size:12px;font-weight:bold;cursor:pointer;fill:#333333;" x="21"><tspan>Series 1</tspan></text></g></g></g></g><g  class="highcharts-axis-labels highcharts-xaxis-labels"><text opacity="1" y="342" transform="translate(0,0)" text-anchor="middle" style="color:#606060;cursor:default;font-size:11px;fill:#606060;width:68px;text-overflow:clip;" x="82.00980392156863"><tspan>10. Aug</tspan></text><text opacity="1" y="342" transform="translate(0,0)" text-anchor="middle" style="color:#606060;cursor:default;font-size:11px;fill:#606060;width:68px;text-overflow:clip;" x="152.10784313725492"><tspan>11. Aug</tspan></text><text opacity="1" y="342" transform="translate(0,0)" text-anchor="middle" style="color:#606060;cursor:default;font-size:11px;fill:#606060;width:68px;text-overflow:clip;" x="222.20588235294116"><tspan>12. Aug</tspan></text><text opacity="1" y="342" transform="translate(0,0)" text-anchor="middle" style="color:#606060;cursor:default;font-size:11px;fill:#606060;width:68px;text-overflow:clip;" x="292.3039215686274"><tspan>13. Aug</tspan></text><text opacity="1" y="342" transform="translate(0,0)" text-anchor="middle" style="color:#606060;cursor:default;font-size:11px;fill:#606060;width:68px;text-overflow:clip;" x="362.4019607843137"><tspan>14. Aug</tspan></text><text opacity="1" y="342" transform="translate(0,0)" text-anchor="middle" style="color:#606060;cursor:default;font-size:11px;fill:#606060;width:68px;text-overflow:clip;" x="432.5"><tspan>15. Aug</tspan></text><text opacity="1" y="342" transform="translate(0,0)" text-anchor="middle" style="color:#606060;cursor:default;font-size:11px;fill:#606060;width:68px;text-overflow:clip;" x="502.59803921568624"><tspan>16. Aug</tspan></text><text opacity="1" y="342" transform="translate(0,0)" text-anchor="middle" style="color:#606060;cursor:default;font-size:11px;fill:#606060;width:68px;text-overflow:clip;" x="572.6960784313726"><tspan>17. Aug</tspan></text><text opacity="1" y="342" transform="translate(0,0)" text-anchor="middle" style="color:#606060;cursor:default;font-size:11px;fill:#606060;width:68px;text-overflow:clip;" x="642.7941176470588"><tspan>18. Aug</tspan></text><text opacity="1" y="342" transform="translate(0,0)" text-anchor="middle" style="color:#606060;cursor:default;font-size:11px;fill:#606060;width:68px;text-overflow:clip;" x="712.8921568627451"><tspan>19. Aug</tspan></text><text opacity="1" y="342" transform="translate(0,0)" text-anchor="middle" style="color:#606060;cursor:default;font-size:11px;fill:#606060;width:68px;text-overflow:clip;" x="767.5"><tspan>20. Aug</tspan></text></g><g  class="highcharts-axis-labels highcharts-yaxis-labels"><text opacity="1" y="327" transform="translate(0,0)" text-anchor="end" style="color:#606060;cursor:default;font-size:11px;fill:#606060;width:254px;text-overflow:clip;" x="60">150</text><text opacity="1" y="281" transform="translate(0,0)" text-anchor="end" style="color:#606060;cursor:default;font-size:11px;fill:#606060;width:254px;text-overflow:clip;" x="60">155</text><text opacity="1" y="235" transform="translate(0,0)" text-anchor="end" style="color:#606060;cursor:default;font-size:11px;fill:#606060;width:254px;text-overflow:clip;" x="60">160</text><text opacity="1" y="189" transform="translate(0,0)" text-anchor="end" style="color:#606060;cursor:default;font-size:11px;fill:#606060;width:254px;text-overflow:clip;" x="60">165</text><text opacity="1" y="143" transform="translate(0,0)" text-anchor="end" style="color:#606060;cursor:default;font-size:11px;fill:#606060;width:254px;text-overflow:clip;" x="60">170</text><text opacity="1" y="97" transform="translate(0,0)" text-anchor="end" style="color:#606060;cursor:default;font-size:11px;fill:#606060;width:254px;text-overflow:clip;" x="60">175</text><text opacity="1" y="51" transform="translate(0,0)" text-anchor="end" style="color:#606060;cursor:default;font-size:11px;fill:#606060;width:254px;text-overflow:clip;" x="60">180</text></g><g transform="translate(0,-9999)" style="cursor:default;padding:0;white-space:nowrap;"  class="highcharts-tooltip"><path transform="translate(1, 1)" stroke-width="5" stroke-opacity="0.049999999999999996" stroke="black"  d="M 3.5 0.5 L 13.5 0.5 C 16.5 0.5 16.5 0.5 16.5 3.5 L 16.5 13.5 C 16.5 16.5 16.5 16.5 13.5 16.5 L 3.5 16.5 C 0.5 16.5 0.5 16.5 0.5 13.5 L 0.5 3.5 C 0.5 0.5 0.5 0.5 3.5 0.5" fill="none"></path><path transform="translate(1, 1)" stroke-width="3" stroke-opacity="0.09999999999999999" stroke="black"  d="M 3.5 0.5 L 13.5 0.5 C 16.5 0.5 16.5 0.5 16.5 3.5 L 16.5 13.5 C 16.5 16.5 16.5 16.5 13.5 16.5 L 3.5 16.5 C 0.5 16.5 0.5 16.5 0.5 13.5 L 0.5 3.5 C 0.5 0.5 0.5 0.5 3.5 0.5" fill="none"></path><path transform="translate(1, 1)" stroke-width="1" stroke-opacity="0.15" stroke="black"  d="M 3.5 0.5 L 13.5 0.5 C 16.5 0.5 16.5 0.5 16.5 3.5 L 16.5 13.5 C 16.5 16.5 16.5 16.5 13.5 16.5 L 3.5 16.5 C 0.5 16.5 0.5 16.5 0.5 13.5 L 0.5 3.5 C 0.5 0.5 0.5 0.5 3.5 0.5" fill="none"></path><path d="M 3.5 0.5 L 13.5 0.5 C 16.5 0.5 16.5 0.5 16.5 3.5 L 16.5 13.5 C 16.5 16.5 16.5 16.5 13.5 16.5 L 3.5 16.5 C 0.5 16.5 0.5 16.5 0.5 13.5 L 0.5 3.5 C 0.5 0.5 0.5 0.5 3.5 0.5" fill="rgb(249, 249, 249)" fill-opacity=" .85"></path><text y="20" style="font-size:12px;color:#333333;fill:#333333;"  x="8"></text></g><text y="395" style="cursor:pointer;color:#909090;font-size:9px;fill:#909090;"  text-anchor="end" x="790">Highcharts.com</text></svg>